
<svg xmlns="http://www.w3.org/2000/svg" version="1.1" xmlnsXlink="http://www.w3.org/1999/xlink" xmlns_svgjs="http://svgjs.dev/svgjs" width="100" height="62" viewBox="0 0 1000 623"><g transform="matrix(1,0,0,1,-0.6060606060606233,0.2522267206477409)"><svg viewBox="0 0 396 247" data-background-color="#ffffff" preserveAspectRatio="xMidYMid meet" height="623" width="1000" xmlns="http://www.w3.org/2000/svg" xmlns:xlink="http://www.w3.org/1999/xlink"><g id="tight-bounds" transform="matrix(1,0,0,1,0.2400000000000091,-0.09999999999999432)"><svg viewBox="0 0 395.52 247.2" height="247.2" width="395.52"><g><svg></svg></g><g><svg viewBox="0 0 395.52 247.2" height="247.2" width="395.52"><mask id="9b9d8640-a6c0-4c6b-925b-94204a146cfd"><rect width="395.52" height="247.2" fill="white"></rect><g transform="matrix(1,0,0,1,0,98.62655663915979)" id="clone"><svg viewBox="0 0 395.52 49.946886721680414" height="49.946886721680414" width="395.52"><g><svg viewBox="0 0 395.52 49.946886721680414" height="49.946886721680414" width="395.52"><g><svg viewBox="0 0 395.52 49.946886721680414" height="49.946886721680414" width="395.52"><g><svg viewBox="0 0 395.52 49.946886721680414" height="49.946886721680414" width="395.52"><g id="SvgjsG1154"><svg viewBox="0 0 395.52 49.946886721680414" height="49.946886721680414" width="395.52" id="SvgjsSvg1153"><g><svg viewBox="0 0 395.52 49.946886721680414" height="49.946886721680414" width="395.52"><g transform="matrix(1,0,0,1,0,0)"><svg width="395.52" viewBox="-2.099999964237213 -38.900001525878906 400.8600158691406 51.5" height="49.946886721680414" data-palette-color="#030303"><path d="M0.9-33.7L23.15-33.7 23.15-30.15 14.05-30.15 14.05 0 10 0 10-30.15 0.9-30.15 0.9-33.7ZM27.75-35.35L31.65-35.35 31.65-20.95Q33.9-25.7 39.65-25.7L39.65-25.7Q43.3-25.7 45.52-23.45 47.75-21.2 47.75-17.35L47.75-17.35 47.75 0 43.8 0 43.8-16.4Q43.8-19.15 42.37-20.65 40.95-22.15 38.65-22.15L38.65-22.15Q35.85-22.15 33.75-20 31.65-17.85 31.65-13.85L31.65-13.85 31.65 0 27.75 0 27.75-35.35ZM57.3-14.3L70.89-14.3 70.89-15.3Q70.89-18.45 69.19-20.33 67.5-22.2 64.5-22.2L64.5-22.2Q61.64-22.2 59.64-20.15 57.64-18.1 57.3-14.3L57.3-14.3ZM73.25-5L73.25-5 73.25-1.3Q70.3 0.25 66.05 0.25L66.05 0.25Q60.3 0.25 56.77-3.28 53.24-6.8 53.24-12.6L53.24-12.6Q53.24-18.65 56.39-22.15 59.55-25.65 64.5-25.65L64.5-25.65Q69.25-25.65 72.05-22.6 74.84-19.55 74.84-13.95L74.84-13.95Q74.84-12.35 74.59-11L74.59-11 57.3-11Q57.74-7.25 60.14-5.25 62.55-3.25 66.44-3.25L66.44-3.25Q70.69-3.25 73.25-5ZM117.29-32.35L117.29-32.35 117.29-28.2Q115.09-29.35 113.34-29.85 111.59-30.35 108.74-30.35L108.74-30.35Q103.29-30.35 99.67-26.65 96.04-22.95 96.04-17L96.04-17Q96.04-10.8 99.64-7.1 103.24-3.4 109.19-3.4L109.19-3.4Q113.99-3.4 117.39-5.95L117.39-5.95 117.39-1.7Q114.29 0.4 108.89 0.4L108.89 0.4Q101.29 0.4 96.54-4.28 91.79-8.95 91.79-17L91.79-17Q91.79-24.6 96.61-29.38 101.44-34.15 108.74-34.15L108.74-34.15Q113.99-34.15 117.29-32.35ZM127.29 0L123.34 0 123.34-35.35 127.29-35.35 127.29 0ZM145.09 0.45L145.09 0.45Q139.64 0.45 136.46-3.23 133.29-6.9 133.29-12.5L133.29-12.5Q133.29-18.15 136.56-21.93 139.84-25.7 145.09-25.7L145.09-25.7Q150.84-25.7 153.96-22 157.09-18.3 157.09-12.6L157.09-12.6Q157.09-6.95 153.89-3.25 150.69 0.45 145.09 0.45ZM145.09-22.2L145.09-22.2Q141.49-22.2 139.44-19.4 137.39-16.6 137.39-12.55L137.39-12.55Q137.39-8.6 139.49-5.83 141.59-3.05 145.09-3.05L145.09-3.05Q148.89-3.05 150.94-5.78 152.99-8.5 152.99-12.55L152.99-12.55Q152.99-16.75 151.04-19.48 149.09-22.2 145.09-22.2ZM175.33-22.15L168.33-22.15 168.33-7.3Q168.33-3.25 172.13-3.25L172.13-3.25Q174.08-3.25 175.58-4.4L175.58-4.4 175.58-0.65Q173.93 0.25 171.88 0.25L171.88 0.25Q164.38 0.25 164.38-7.4L164.38-7.4 164.38-22.15 160.33-22.15 160.33-25.35 164.38-25.35 164.38-31.65 168.33-31.65 168.33-25.35 175.33-25.35 175.33-22.15ZM181.33-35.35L185.23-35.35 185.23-20.95Q187.48-25.7 193.23-25.7L193.23-25.7Q196.88-25.7 199.11-23.45 201.33-21.2 201.33-17.35L201.33-17.35 201.33 0 197.38 0 197.38-16.4Q197.38-19.15 195.96-20.65 194.53-22.15 192.23-22.15L192.23-22.15Q189.43-22.15 187.33-20 185.23-17.85 185.23-13.85L185.23-13.85 185.23 0 181.33 0 181.33-35.35ZM212.48 0L208.53 0 208.53-25.35 212.48-25.35 212.48 0ZM208.65-31.48Q207.93-32.2 207.93-33.3 207.93-34.4 208.65-35.15 209.38-35.9 210.48-35.9 211.58-35.9 212.33-35.15 213.08-34.4 213.08-33.3 213.08-32.2 212.33-31.48 211.58-30.75 210.48-30.75 209.38-30.75 208.65-31.48ZM219.98-25.35L223.88-25.35 223.88-20.95Q226.13-25.7 231.88-25.7L231.88-25.7Q235.58-25.7 237.78-23.45 239.98-21.2 239.98-17.45L239.98-17.45 239.98 0 236.03 0 236.03-16.4Q236.03-19.2 234.6-20.68 233.18-22.15 230.88-22.15L230.88-22.15Q228.03-22.15 225.95-19.95 223.88-17.75 223.88-13.85L223.88-13.85 223.88 0 219.98 0 219.98-25.35ZM256.47-4.15L256.47-4.15Q259.22-4.15 261.35-6.28 263.47-8.4 263.47-12.6L263.47-12.6Q263.47-17.45 261.42-19.8 259.37-22.15 256.67-22.15L256.67-22.15Q253.42-22.15 251.52-19.58 249.62-17 249.62-12.85L249.62-12.85Q249.62-8.6 251.72-6.38 253.82-4.15 256.47-4.15ZM263.47-21.15L263.47-25.35 267.42-25.35 267.42-2.05Q267.42 3.75 264.22 6.68 261.02 9.6 255.97 9.6L255.97 9.6Q251.37 9.6 248.12 8.05L248.12 8.05 248.12 4.1Q251.32 5.95 255.62 5.95L255.62 5.95Q259.27 5.95 261.37 4 263.47 2.05 263.47-2.1L263.47-2.1 263.47-4.95Q260.97-0.65 256.02-0.65L256.02-0.65Q251.67-0.65 248.6-3.85 245.52-7.05 245.52-12.75L245.52-12.75Q245.52-18.4 248.37-22.05 251.22-25.7 255.82-25.7L255.82-25.7Q261.02-25.7 263.47-21.15L263.47-21.15ZM304.47-32.45L304.47-32.45 304.47-28.2Q301.42-30.2 297.17-30.2L297.17-30.2Q294.12-30.2 292.32-28.78 290.52-27.35 290.52-25.05L290.52-25.05Q290.52-23.85 290.99-22.9 291.47-21.95 292.67-21.13 293.87-20.3 294.72-19.88 295.57-19.45 297.37-18.65L297.37-18.65Q299.07-17.9 299.97-17.48 300.87-17.05 302.29-16.13 303.72-15.2 304.44-14.33 305.17-13.45 305.74-12.03 306.32-10.6 306.32-8.95L306.32-8.95Q306.32-4.5 303.27-2.08 300.22 0.35 295.42 0.35L295.42 0.35Q290.12 0.35 286.42-1.8L286.42-1.8 286.42-6.15Q290.07-3.4 295.32-3.4L295.32-3.4Q298.47-3.4 300.27-4.8 302.07-6.2 302.07-8.85L302.07-8.85Q302.07-9.95 301.64-10.83 301.22-11.7 300.24-12.43 299.27-13.15 298.39-13.63 297.52-14.1 296.02-14.8L296.02-14.8Q295.72-14.95 295.12-15.2L295.12-15.2Q292.97-16.15 291.84-16.75 290.72-17.35 289.19-18.53 287.67-19.7 286.97-21.25 286.27-22.8 286.27-24.85L286.27-24.85Q286.27-29.15 289.34-31.58 292.42-34 297.07-34L297.07-34Q301.42-34 304.47-32.45ZM325.27-22.15L318.27-22.15 318.27-7.3Q318.27-3.25 322.06-3.25L322.06-3.25Q324.02-3.25 325.52-4.4L325.52-4.4 325.52-0.65Q323.87 0.25 321.81 0.25L321.81 0.25Q314.31 0.25 314.31-7.4L314.31-7.4 314.31-22.15 310.27-22.15 310.27-25.35 314.31-25.35 314.31-31.65 318.27-31.65 318.27-25.35 325.27-25.35 325.27-22.15ZM341.56 0.45L341.56 0.45Q336.11 0.45 332.94-3.23 329.76-6.9 329.76-12.5L329.76-12.5Q329.76-18.15 333.04-21.93 336.31-25.7 341.56-25.7L341.56-25.7Q347.31-25.7 350.44-22 353.56-18.3 353.56-12.6L353.56-12.6Q353.56-6.95 350.36-3.25 347.16 0.45 341.56 0.45ZM341.56-22.2L341.56-22.2Q337.96-22.2 335.91-19.4 333.86-16.6 333.86-12.55L333.86-12.55Q333.86-8.6 335.96-5.83 338.06-3.05 341.56-3.05L341.56-3.05Q345.36-3.05 347.41-5.78 349.46-8.5 349.46-12.55L349.46-12.55Q349.46-16.75 347.51-19.48 345.56-22.2 341.56-22.2ZM359.36-25.35L363.26-25.35 363.26-20.9Q365.26-25.6 370.16-25.6L370.16-25.6Q371.06-25.6 371.56-25.5L371.56-25.5 371.56-21.6Q370.51-21.95 369.41-21.95L369.41-21.95Q366.76-21.95 365.01-19.5 363.26-17.05 363.26-13.85L363.26-13.85 363.26 0 359.31 0 359.36-25.35ZM378.21-14.3L391.81-14.3 391.81-15.3Q391.81-18.45 390.11-20.33 388.41-22.2 385.41-22.2L385.41-22.2Q382.56-22.2 380.56-20.15 378.56-18.1 378.21-14.3L378.21-14.3ZM394.16-5L394.16-5 394.16-1.3Q391.21 0.25 386.96 0.25L386.96 0.25Q381.21 0.25 377.68-3.28 374.16-6.8 374.16-12.6L374.16-12.6Q374.16-18.65 377.31-22.15 380.46-25.65 385.41-25.65L385.41-25.65Q390.16-25.65 392.96-22.6 395.76-19.55 395.76-13.95L395.76-13.95Q395.76-12.35 395.51-11L395.51-11 378.21-11Q378.66-7.25 381.06-5.25 383.46-3.25 387.36-3.25L387.36-3.25Q391.61-3.25 394.16-5Z" opacity="1" transform="matrix(1,0,0,1,0,0)" fill="black" class="wordmark-text-0" id="SvgjsPath1152" stroke-width="5" stroke="black" stroke-linejoin="round"></path></svg></g></svg></g></svg></g></svg></g></svg></g></svg></g></svg></g></mask><g mask="url(#9b9d8640-a6c0-4c6b-925b-94204a146cfd)"><g><path xmlns="http://www.w3.org/2000/svg" d="M1 37.221h114.231v18.225h-46.719v154.79h-20.793v-154.79h-46.719zM263.347 44.152v0 21.306c-7.53-3.936-14.29-6.76-20.28-8.471-5.99-1.711-13.862-2.567-23.616-2.567v0c-18.653 0-34.175 6.332-46.565 18.995-12.424 12.664-18.636 29.178-18.637 49.543v0c0 21.22 6.161 38.163 18.483 50.827 12.322 12.664 28.665 18.996 49.029 18.995v0c16.429 0 30.462-4.364 42.099-13.091v0 21.819c-10.61 7.188-25.157 10.781-43.639 10.782v0c-26.012 0-47.147-8.009-63.405-24.027-16.258-15.984-24.386-37.752-24.386-65.305v0c0-26.012 8.266-47.198 24.797-63.558 16.497-16.326 37.239-24.489 62.224-24.49v0c17.969 0 32.601 3.08 43.896 9.242zM385.022 43.638v0 21.82c-10.439-6.845-22.932-10.268-37.478-10.268v0c-10.439 0-18.739 2.43-24.9 7.29-6.161 4.894-9.241 11.278-9.241 19.15v0c0 4.107 0.821 7.787 2.464 11.038 1.609 3.252 4.467 6.281 8.574 9.087 4.107 2.841 7.615 4.98 10.525 6.417 2.909 1.472 7.444 3.577 13.605 6.315v0c5.819 2.567 10.268 4.569 13.348 6.007 3.08 1.472 7.068 3.782 11.962 6.931 4.86 3.183 8.54 6.263 11.038 9.241 2.464 3.012 4.689 6.948 6.675 11.808 1.951 4.894 2.926 10.165 2.926 15.813v0c0 15.231-5.22 26.988-15.659 35.27-10.439 8.317-23.873 12.476-40.301 12.476v0c-18.14 0-33.542-3.679-46.206-11.038v0-22.333c12.493 9.412 27.724 14.118 45.692 14.118v0c10.781 0 19.252-2.396 25.413-7.187 6.161-4.792 9.241-11.723 9.242-20.793v0c0-3.765-0.719-7.153-2.157-10.165-1.472-2.978-3.868-5.716-7.187-8.214-3.354-2.464-6.52-4.518-9.498-6.161-3.012-1.609-7.085-3.611-12.219-6.007v0c-1.027-0.513-2.567-1.198-4.621-2.054v0c-7.359-3.252-12.955-5.904-16.788-7.957-3.868-2.054-8.403-5.1-13.605-9.139-5.237-4.005-9.053-8.659-11.449-13.964-2.396-5.305-3.594-11.466-3.593-18.483v0c0-14.717 5.271-26.235 15.812-34.551 10.508-8.283 23.719-12.424 39.635-12.425v0c14.889 0 27.552 2.653 37.991 7.958z" fill="#060606" fill-rule="nonzero" stroke="none" stroke-width="1" stroke-linecap="butt" stroke-linejoin="miter" stroke-miterlimit="10" stroke-dasharray="" stroke-dashoffset="0" font-family="none" font-weight="none" font-size="none" text-anchor="none" style="mix-blend-mode: normal" data-fill-palette-color="tertiary"></path></g></g><g transform="matrix(1,0,0,1,0,98.62655663915979)"><svg viewBox="0 0 395.52 49.946886721680414" height="49.946886721680414" width="395.52"><g><svg viewBox="0 0 395.52 49.946886721680414" height="49.946886721680414" width="395.52"><g><svg viewBox="0 0 395.52 49.946886721680414" height="49.946886721680414" width="395.52"><g><svg viewBox="0 0 395.52 49.946886721680414" height="49.946886721680414" width="395.52"><g id="textblocktransform"><svg viewBox="0 0 395.52 49.946886721680414" height="49.946886721680414" width="395.52" id="textblock"><g><svg viewBox="0 0 395.52 49.946886721680414" height="49.946886721680414" width="395.52"><g transform="matrix(1,0,0,1,0,0)"><svg width="395.52" viewBox="-2.099999964237213 -38.900001525878906 400.8600158691406 51.5" height="49.946886721680414" data-palette-color="#030303"><path d="M0.9-33.7L23.15-33.7 23.15-30.15 14.05-30.15 14.05 0 10 0 10-30.15 0.9-30.15 0.9-33.7ZM27.75-35.35L31.65-35.35 31.65-20.95Q33.9-25.7 39.65-25.7L39.65-25.7Q43.3-25.7 45.52-23.45 47.75-21.2 47.75-17.35L47.75-17.35 47.75 0 43.8 0 43.8-16.4Q43.8-19.15 42.37-20.65 40.95-22.15 38.65-22.15L38.65-22.15Q35.85-22.15 33.75-20 31.65-17.85 31.65-13.85L31.65-13.85 31.65 0 27.75 0 27.75-35.35ZM57.3-14.3L70.89-14.3 70.89-15.3Q70.89-18.45 69.19-20.33 67.5-22.2 64.5-22.2L64.5-22.2Q61.64-22.2 59.64-20.15 57.64-18.1 57.3-14.3L57.3-14.3ZM73.25-5L73.25-5 73.25-1.3Q70.3 0.25 66.05 0.25L66.05 0.25Q60.3 0.25 56.77-3.28 53.24-6.8 53.24-12.6L53.24-12.6Q53.24-18.65 56.39-22.15 59.55-25.65 64.5-25.65L64.5-25.65Q69.25-25.65 72.05-22.6 74.84-19.55 74.84-13.95L74.84-13.95Q74.84-12.35 74.59-11L74.59-11 57.3-11Q57.74-7.25 60.14-5.25 62.55-3.25 66.44-3.25L66.44-3.25Q70.69-3.25 73.25-5ZM117.29-32.35L117.29-32.35 117.29-28.2Q115.09-29.35 113.34-29.85 111.59-30.35 108.74-30.35L108.74-30.35Q103.29-30.35 99.67-26.65 96.04-22.95 96.04-17L96.04-17Q96.04-10.8 99.64-7.1 103.24-3.4 109.19-3.4L109.19-3.4Q113.99-3.4 117.39-5.95L117.39-5.95 117.39-1.7Q114.29 0.4 108.89 0.4L108.89 0.4Q101.29 0.4 96.54-4.28 91.79-8.95 91.79-17L91.79-17Q91.79-24.6 96.61-29.38 101.44-34.15 108.74-34.15L108.74-34.15Q113.99-34.15 117.29-32.35ZM127.29 0L123.34 0 123.34-35.35 127.29-35.35 127.29 0ZM145.09 0.45L145.09 0.45Q139.64 0.45 136.46-3.23 133.29-6.9 133.29-12.5L133.29-12.5Q133.29-18.15 136.56-21.93 139.84-25.7 145.09-25.7L145.09-25.7Q150.84-25.7 153.96-22 157.09-18.3 157.09-12.6L157.09-12.6Q157.09-6.95 153.89-3.25 150.69 0.45 145.09 0.45ZM145.09-22.2L145.09-22.2Q141.49-22.2 139.44-19.4 137.39-16.6 137.39-12.55L137.39-12.55Q137.39-8.6 139.49-5.83 141.59-3.05 145.09-3.05L145.09-3.05Q148.89-3.05 150.94-5.78 152.99-8.5 152.99-12.55L152.99-12.55Q152.99-16.75 151.04-19.48 149.09-22.2 145.09-22.2ZM175.33-22.15L168.33-22.15 168.33-7.3Q168.33-3.25 172.13-3.25L172.13-3.25Q174.08-3.25 175.58-4.4L175.58-4.4 175.58-0.65Q173.93 0.25 171.88 0.25L171.88 0.25Q164.38 0.25 164.38-7.4L164.38-7.4 164.38-22.15 160.33-22.15 160.33-25.35 164.38-25.35 164.38-31.65 168.33-31.65 168.33-25.35 175.33-25.35 175.33-22.15ZM181.33-35.35L185.23-35.35 185.23-20.95Q187.48-25.7 193.23-25.7L193.23-25.7Q196.88-25.7 199.11-23.45 201.33-21.2 201.33-17.35L201.33-17.35 201.33 0 197.38 0 197.38-16.4Q197.38-19.15 195.96-20.65 194.53-22.15 192.23-22.15L192.23-22.15Q189.43-22.15 187.33-20 185.23-17.85 185.23-13.85L185.23-13.85 185.23 0 181.33 0 181.33-35.35ZM212.48 0L208.53 0 208.53-25.35 212.48-25.35 212.48 0ZM208.65-31.48Q207.93-32.2 207.93-33.3 207.93-34.4 208.65-35.15 209.38-35.9 210.48-35.9 211.58-35.9 212.33-35.15 213.08-34.4 213.08-33.3 213.08-32.2 212.33-31.48 211.58-30.75 210.48-30.75 209.38-30.75 208.65-31.48ZM219.98-25.35L223.88-25.35 223.88-20.95Q226.13-25.7 231.88-25.7L231.88-25.7Q235.58-25.7 237.78-23.45 239.98-21.2 239.98-17.45L239.98-17.45 239.98 0 236.03 0 236.03-16.4Q236.03-19.2 234.6-20.68 233.18-22.15 230.88-22.15L230.88-22.15Q228.03-22.15 225.95-19.95 223.88-17.75 223.88-13.85L223.88-13.85 223.88 0 219.98 0 219.98-25.35ZM256.47-4.15L256.47-4.15Q259.22-4.15 261.35-6.28 263.47-8.4 263.47-12.6L263.47-12.6Q263.47-17.45 261.42-19.8 259.37-22.15 256.67-22.15L256.67-22.15Q253.42-22.15 251.52-19.58 249.62-17 249.62-12.85L249.62-12.85Q249.62-8.6 251.72-6.38 253.82-4.15 256.47-4.15ZM263.47-21.15L263.47-25.35 267.42-25.35 267.42-2.05Q267.42 3.75 264.22 6.68 261.02 9.6 255.97 9.6L255.97 9.6Q251.37 9.6 248.12 8.05L248.12 8.05 248.12 4.1Q251.32 5.95 255.62 5.95L255.62 5.95Q259.27 5.95 261.37 4 263.47 2.05 263.47-2.1L263.47-2.1 263.47-4.95Q260.97-0.65 256.02-0.65L256.02-0.65Q251.67-0.65 248.6-3.85 245.52-7.05 245.52-12.75L245.52-12.75Q245.52-18.4 248.37-22.05 251.22-25.7 255.82-25.7L255.82-25.7Q261.02-25.7 263.47-21.15L263.47-21.15ZM304.47-32.45L304.47-32.45 304.47-28.2Q301.42-30.2 297.17-30.2L297.17-30.2Q294.12-30.2 292.32-28.78 290.52-27.35 290.52-25.05L290.52-25.05Q290.52-23.85 290.99-22.9 291.47-21.95 292.67-21.13 293.87-20.3 294.72-19.88 295.57-19.45 297.37-18.65L297.37-18.65Q299.07-17.9 299.97-17.48 300.87-17.05 302.29-16.13 303.72-15.2 304.44-14.33 305.17-13.45 305.74-12.03 306.32-10.6 306.32-8.95L306.32-8.95Q306.32-4.5 303.27-2.08 300.22 0.35 295.42 0.35L295.42 0.35Q290.12 0.35 286.42-1.8L286.42-1.8 286.42-6.15Q290.07-3.4 295.32-3.4L295.32-3.4Q298.47-3.4 300.27-4.8 302.07-6.2 302.07-8.85L302.07-8.85Q302.07-9.95 301.64-10.83 301.22-11.7 300.24-12.43 299.27-13.15 298.39-13.63 297.52-14.1 296.02-14.8L296.02-14.8Q295.72-14.95 295.12-15.2L295.12-15.2Q292.97-16.15 291.84-16.75 290.72-17.35 289.19-18.53 287.67-19.7 286.97-21.25 286.27-22.8 286.27-24.85L286.27-24.85Q286.27-29.15 289.34-31.58 292.42-34 297.07-34L297.07-34Q301.42-34 304.47-32.45ZM325.27-22.15L318.27-22.15 318.27-7.3Q318.27-3.25 322.06-3.25L322.06-3.25Q324.02-3.25 325.52-4.4L325.52-4.4 325.52-0.65Q323.87 0.25 321.81 0.25L321.81 0.25Q314.31 0.25 314.31-7.4L314.31-7.4 314.31-22.15 310.27-22.15 310.27-25.35 314.31-25.35 314.31-31.65 318.27-31.65 318.27-25.35 325.27-25.35 325.27-22.15ZM341.56 0.45L341.56 0.45Q336.11 0.45 332.94-3.23 329.76-6.9 329.76-12.5L329.76-12.5Q329.76-18.15 333.04-21.93 336.31-25.7 341.56-25.7L341.56-25.7Q347.31-25.7 350.44-22 353.56-18.3 353.56-12.6L353.56-12.6Q353.56-6.95 350.36-3.25 347.16 0.45 341.56 0.45ZM341.56-22.2L341.56-22.2Q337.96-22.2 335.91-19.4 333.86-16.6 333.86-12.55L333.86-12.55Q333.86-8.6 335.96-5.83 338.06-3.05 341.56-3.05L341.56-3.05Q345.36-3.05 347.41-5.78 349.46-8.5 349.46-12.55L349.46-12.55Q349.46-16.75 347.51-19.48 345.56-22.2 341.56-22.2ZM359.36-25.35L363.26-25.35 363.26-20.9Q365.26-25.6 370.16-25.6L370.16-25.6Q371.06-25.6 371.56-25.5L371.56-25.5 371.56-21.6Q370.51-21.95 369.41-21.95L369.41-21.95Q366.76-21.95 365.01-19.5 363.26-17.05 363.26-13.85L363.26-13.85 363.26 0 359.31 0 359.36-25.35ZM378.21-14.3L391.81-14.3 391.81-15.3Q391.81-18.45 390.11-20.33 388.41-22.2 385.41-22.2L385.41-22.2Q382.56-22.2 380.56-20.15 378.56-18.1 378.21-14.3L378.21-14.3ZM394.16-5L394.16-5 394.16-1.3Q391.21 0.25 386.96 0.25L386.96 0.25Q381.21 0.25 377.68-3.28 374.16-6.8 374.16-12.6L374.16-12.6Q374.16-18.65 377.31-22.15 380.46-25.65 385.41-25.65L385.41-25.65Q390.16-25.65 392.96-22.6 395.76-19.55 395.76-13.95L395.76-13.95Q395.76-12.35 395.51-11L395.51-11 378.21-11Q378.66-7.25 381.06-5.25 383.46-3.25 387.36-3.25L387.36-3.25Q391.61-3.25 394.16-5Z" opacity="1" transform="matrix(1,0,0,1,0,0)" fill="#030303" class="wordmark-text-0" data-fill-palette-color="primary" id="text-0"></path></svg></g></svg></g></svg></g></svg></g></svg></g></svg></g></svg></g></svg></g><defs></defs></svg><rect width="395.52" height="247.2" fill="none" stroke="none" visibility="hidden"></rect></g></svg></g></svg>